<svg width="24" height="24" viewBox="0 0 24 24" fill="none" xmlns="http://www.w3.org/2000/svg">
<g clip-path="url(#clip0_16_1374)">
<path fill-rule="evenodd" clip-rule="evenodd" d="M12 19.3846C12.2448 19.3846 12.4796 19.4819 12.6527 19.655C12.8258 19.8281 12.9231 20.0629 12.9231 20.3077V23.0769C12.9231 23.3217 12.8258 23.5565 12.6527 23.7296C12.4796 23.9027 12.2448 24 12 24C11.7552 24 11.5204 23.9027 11.3473 23.7296C11.1742 23.5565 11.0769 23.3217 11.0769 23.0769V20.3077C11.0769 20.0629 11.1742 19.8281 11.3473 19.655C11.5204 19.4819 11.7552 19.3846 12 19.3846ZM6.77815 17.2218C6.9512 17.3949 7.04842 17.6297 7.04842 17.8745C7.04842 18.1192 6.9512 18.354 6.77815 18.5271L4.82031 20.4849C4.64621 20.6531 4.41304 20.7461 4.17101 20.744C3.92899 20.7419 3.69747 20.6448 3.52632 20.4737C3.35518 20.3025 3.2581 20.071 3.25599 19.829C3.25389 19.587 3.34693 19.3538 3.51508 19.1797L5.472 17.2218C5.55773 17.136 5.65953 17.0679 5.77159 17.0215C5.88365 16.975 6.00377 16.9511 6.12508 16.9511C6.24638 16.9511 6.3665 16.975 6.47856 17.0215C6.59062 17.0679 6.69242 17.136 6.77815 17.2218ZM18.5271 17.2218L20.4849 19.1797C20.6531 19.3538 20.7461 19.587 20.744 19.829C20.7419 20.071 20.6448 20.3025 20.4737 20.4737C20.3025 20.6448 20.071 20.7419 19.829 20.744C19.587 20.7461 19.3538 20.6531 19.1797 20.4849L17.2218 18.528C17.0486 18.3549 16.9513 18.1201 16.9512 17.8752C16.9511 17.6304 17.0483 17.3955 17.2214 17.2223C17.3945 17.0491 17.6293 16.9517 17.8741 16.9517C18.119 16.9516 18.3539 17.0488 18.5271 17.2218ZM12 7.38462C13.2241 7.38462 14.398 7.87088 15.2636 8.73643C16.1291 9.60198 16.6154 10.7759 16.6154 12C16.6154 13.2241 16.1291 14.398 15.2636 15.2636C14.398 16.1291 13.2241 16.6154 12 16.6154C10.7759 16.6154 9.60198 16.1291 8.73643 15.2636C7.87088 14.398 7.38462 13.2241 7.38462 12C7.38462 10.7759 7.87088 9.60198 8.73643 8.73643C9.60198 7.87088 10.7759 7.38462 12 7.38462ZM23.0769 11.0769C23.3217 11.0769 23.5565 11.1742 23.7296 11.3473C23.9027 11.5204 24 11.7552 24 12C24 12.2448 23.9027 12.4796 23.7296 12.6527C23.5565 12.8258 23.3217 12.9231 23.0769 12.9231H20.3077C20.0629 12.9231 19.8281 12.8258 19.655 12.6527C19.4819 12.4796 19.3846 12.2448 19.3846 12C19.3846 11.7552 19.4819 11.5204 19.655 11.3473C19.8281 11.1742 20.0629 11.0769 20.3077 11.0769H23.0769ZM3.69231 11.0769C3.93712 11.0769 4.17191 11.1742 4.34502 11.3473C4.51813 11.5204 4.61538 11.7552 4.61538 12C4.61538 12.2448 4.51813 12.4796 4.34502 12.6527C4.17191 12.8258 3.93712 12.9231 3.69231 12.9231H0.923077C0.678262 12.9231 0.443473 12.8258 0.270363 12.6527C0.0972525 12.4796 0 12.2448 0 12C0 11.7552 0.0972525 11.5204 0.270363 11.3473C0.443473 11.1742 0.678262 11.0769 0.923077 11.0769H3.69231ZM20.4849 3.51508C20.658 3.68818 20.7552 3.92293 20.7552 4.16769C20.7552 4.41246 20.658 4.64721 20.4849 4.82031L18.528 6.77815C18.3549 6.95136 18.1201 7.04872 17.8752 7.0488C17.6304 7.04889 17.3955 6.9517 17.2223 6.77862C17.0491 6.60553 16.9517 6.37073 16.9517 6.12586C16.9516 5.881 17.0488 5.64613 17.2218 5.47292L19.1797 3.51508C19.3528 3.34203 19.5875 3.24481 19.8323 3.24481C20.0771 3.24481 20.3118 3.34203 20.4849 3.51508ZM4.82031 3.51508L6.77815 5.472C6.95148 5.64496 7.049 5.87969 7.04926 6.12456C7.04952 6.36942 6.9525 6.60436 6.77954 6.77769C6.60658 6.95102 6.37184 7.04854 6.12698 7.0488C5.88211 7.04906 5.64718 6.95204 5.47385 6.77908L3.51508 4.82031C3.34693 4.64621 3.25389 4.41304 3.25599 4.17101C3.2581 3.92899 3.35518 3.69747 3.52632 3.52632C3.69747 3.35518 3.92899 3.2581 4.17101 3.25599C4.41304 3.25389 4.64621 3.34693 4.82031 3.51508ZM12 0C12.2448 0 12.4796 0.0972525 12.6527 0.270363C12.8258 0.443473 12.9231 0.678262 12.9231 0.923077V3.69231C12.9231 3.93712 12.8258 4.17191 12.6527 4.34502C12.4796 4.51813 12.2448 4.61538 12 4.61538C11.7552 4.61538 11.5204 4.51813 11.3473 4.34502C11.1742 4.17191 11.0769 3.93712 11.0769 3.69231V0.923077C11.0769 0.678262 11.1742 0.443473 11.3473 0.270363C11.5204 0.0972525 11.7552 0 12 0Z" fill="#484B6A"/>
</g>
<defs>
<clipPath id="clip0_16_1374">
<rect width="24" height="24" fill="white"/>
</clipPath>
</defs>
</svg>
